<svg xmlns="http://www.w3.org/2000/svg" viewBox="0 0 512 512">
  <!-- Background: Emerald Green Rounded Square -->
  <rect x="0" y="0" width="512" height="512" rx="128" fill="#1B5E20"/>
  
  <!-- Icon: Golden Open Book / Quran -->
  <g transform="translate(106, 136) scale(0.6)" fill="#C5A059">
    <path d="M464 64H32C14.33 64 0 78.33 0 96v320c0 17.67 14.33 32 32 32h432c17.67 0 32-14.33 32-32V96C496 78.33 481.67 64 464 64zM224 400H48V112h176v288zm224 0H272V112h176v288z"/>
    <!-- Decorative lines -->
    <rect x="80" y="160" width="112" height="32" rx="8" fill="#C5A059" opacity="0.8"/>
    <rect x="80" y="224" width="112" height="32" rx="8" fill="#C5A059" opacity="0.8"/>
    <rect x="304" y="160" width="112" height="32" rx="8" fill="#C5A059" opacity="0.8"/>
    <rect x="304" y="224" width="112" height="32" rx="8" fill="#C5A059" opacity="0.8"/>
  </g>
</svg>
